<svg width="200" height="58" viewBox="0 0 200 58" fill="none" xmlns="http://www.w3.org/2000/svg">
<path d="M195.65 52.4761C194.156 52.4761 192.992 52.1614 192.161 51.532C191.329 50.9026 190.874 49.9866 190.795 48.7839H192.43C192.464 49.5258 192.751 50.0934 193.29 50.4867C193.83 50.8801 194.616 51.0768 195.65 51.0768C196.482 51.0768 197.151 50.9195 197.657 50.6048C198.162 50.2788 198.415 49.8236 198.415 49.2392C198.415 48.8008 198.275 48.4411 197.994 48.1602C197.724 47.8679 197.381 47.6431 196.965 47.4858C196.561 47.3284 195.999 47.1486 195.279 46.9463C194.414 46.699 193.717 46.463 193.189 46.2382C192.661 46.0134 192.211 45.6818 191.84 45.2435C191.469 44.8051 191.284 44.2263 191.284 43.507C191.284 42.8776 191.458 42.3212 191.806 41.8379C192.155 41.3434 192.644 40.9668 193.273 40.7083C193.914 40.4386 194.65 40.3037 195.482 40.3037C196.774 40.3037 197.808 40.5903 198.584 41.1635C199.371 41.7255 199.803 42.5572 199.882 43.6587H198.264C198.151 42.3549 197.235 41.703 195.516 41.703C194.695 41.703 194.049 41.8604 193.577 42.1751C193.105 42.4898 192.869 42.9113 192.869 43.4395C192.869 43.8666 193.003 44.2207 193.273 44.5017C193.543 44.7714 193.875 44.985 194.268 45.1423C194.673 45.2997 195.235 45.4795 195.954 45.6818C196.831 45.9291 197.533 46.1651 198.061 46.3899C198.601 46.6147 199.056 46.9519 199.427 47.4015C199.809 47.8511 200 48.4468 200 49.1886C200 49.8517 199.815 50.4362 199.444 50.9419C199.073 51.4365 198.556 51.8186 197.893 52.0884C197.241 52.3469 196.493 52.4761 195.65 52.4761Z" fill="#F4F5F7"/>
<path d="M182.929 47.0307V50.8409H189.572V52.2908H181.412V40.4893H189.487V41.9392H182.929V45.5808H188.56V47.0307H182.929Z" fill="#F4F5F7"/>
<path d="M175.504 52.2908H173.987V41.9392H170.059V40.4893H179.416V41.9392H175.504V52.2908Z" fill="#F4F5F7"/>
<path d="M170.183 52.2908H168.615L167.62 48.8515H161.82L160.826 52.2908H159.275L162.731 40.4893H166.726L170.183 52.2908ZM163.827 41.8886L162.242 47.4016H167.199L165.597 41.8886H163.827Z" fill="#F4F5F7"/>
<path d="M157.294 52.2908H155.777V40.4893H157.294V52.2908Z" fill="#F4F5F7"/>
<path d="M147.851 52.4761C146.738 52.4761 145.716 52.212 144.783 51.6838C143.861 51.1555 143.13 50.4305 142.591 49.5089C142.063 48.576 141.799 47.5364 141.799 46.3899C141.799 45.2435 142.063 44.2095 142.591 43.2878C143.13 42.3549 143.861 41.6244 144.783 41.0961C145.716 40.5678 146.738 40.3037 147.851 40.3037C148.795 40.3037 149.649 40.4948 150.414 40.8769C151.189 41.2591 151.83 41.7649 152.336 42.3943C152.853 43.0237 153.218 43.7149 153.432 44.468H151.813C151.51 43.6812 151.015 43.0349 150.329 42.5291C149.644 42.0121 148.823 41.7536 147.868 41.7536C147.014 41.7536 146.244 41.9503 145.558 42.3437C144.884 42.7371 144.35 43.2878 143.957 43.9959C143.574 44.704 143.383 45.502 143.383 46.3899C143.383 47.2778 143.574 48.0759 143.957 48.7839C144.35 49.492 144.884 50.0428 145.558 50.4362C146.244 50.8295 147.014 51.0262 147.868 51.0262C148.857 51.0262 149.7 50.7565 150.397 50.217C151.094 49.6775 151.588 48.9975 151.88 48.177H153.499C153.274 48.9863 152.898 49.7168 152.369 50.3687C151.852 51.0206 151.2 51.5376 150.414 51.9198C149.638 52.2907 148.784 52.4761 147.851 52.4761Z" fill="#F4F5F7"/>
<path d="M134.087 52.4761C132.963 52.4761 131.935 52.212 131.002 51.6838C130.081 51.1555 129.35 50.4305 128.81 49.5089C128.282 48.576 128.018 47.5364 128.018 46.3899C128.018 45.2435 128.282 44.2095 128.81 43.2878C129.35 42.3549 130.081 41.6244 131.002 41.0961C131.935 40.5678 132.963 40.3037 134.087 40.3037C135.2 40.3037 136.217 40.5678 137.139 41.0961C138.072 41.6244 138.802 42.3549 139.331 43.2878C139.87 44.2095 140.14 45.2435 140.14 46.3899C140.14 47.5364 139.87 48.576 139.331 49.5089C138.802 50.4305 138.072 51.1555 137.139 51.6838C136.217 52.212 135.2 52.4761 134.087 52.4761ZM134.087 51.0262C134.93 51.0262 135.689 50.8295 136.363 50.4362C137.049 50.0428 137.583 49.492 137.965 48.7839C138.358 48.0759 138.555 47.2778 138.555 46.3899C138.555 45.502 138.358 44.704 137.965 43.9959C137.583 43.2878 137.049 42.7371 136.363 42.3437C135.689 41.9503 134.93 41.7536 134.087 41.7536C133.233 41.7536 132.463 41.9503 131.778 42.3437C131.103 42.7371 130.569 43.2878 130.176 43.9959C129.794 44.704 129.603 45.502 129.603 46.3899C129.603 47.2778 129.794 48.0759 130.176 48.7839C130.569 49.492 131.103 50.0428 131.778 50.4362C132.463 50.8295 133.233 51.0262 134.087 51.0262Z" fill="#F4F5F7"/>
<path d="M122.154 52.4761C120.659 52.4761 119.496 52.1614 118.664 51.532C117.833 50.9026 117.378 49.9866 117.299 48.7839H118.934C118.968 49.5258 119.255 50.0934 119.794 50.4867C120.334 50.8801 121.12 51.0768 122.154 51.0768C122.986 51.0768 123.655 50.9195 124.161 50.6048C124.666 50.2788 124.919 49.8236 124.919 49.2392C124.919 48.8008 124.779 48.4411 124.498 48.1602C124.228 47.8679 123.885 47.6431 123.469 47.4858C123.065 47.3284 122.503 47.1486 121.783 46.9463C120.918 46.699 120.221 46.463 119.693 46.2382C119.165 46.0134 118.715 45.6818 118.344 45.2435C117.973 44.8051 117.788 44.2263 117.788 43.507C117.788 42.8776 117.962 42.3212 118.31 41.8379C118.659 41.3434 119.148 40.9668 119.777 40.7083C120.418 40.4386 121.154 40.3037 121.986 40.3037C123.278 40.3037 124.312 40.5903 125.088 41.1635C125.875 41.7255 126.307 42.5572 126.386 43.6587H124.768C124.655 42.3549 123.739 41.703 122.019 41.703C121.199 41.703 120.553 41.8604 120.081 42.1751C119.609 42.4898 119.373 42.9113 119.373 43.4395C119.373 43.8666 119.507 44.2207 119.777 44.5017C120.047 44.7714 120.378 44.985 120.772 45.1423C121.176 45.2997 121.738 45.4795 122.458 45.6818C123.334 45.9291 124.037 46.1651 124.565 46.3899C125.105 46.6147 125.56 46.9519 125.931 47.4015C126.313 47.8511 126.504 48.4468 126.504 49.1886C126.504 49.8517 126.319 50.4362 125.948 50.9419C125.577 51.4365 125.06 51.8186 124.397 52.0884C123.745 52.3469 122.997 52.4761 122.154 52.4761Z" fill="#F4F5F7"/>
<path d="M111.65 52.4761C110.155 52.4761 108.992 52.1614 108.16 51.532C107.329 50.9026 106.873 49.9866 106.795 48.7839H108.43C108.464 49.5258 108.75 50.0934 109.29 50.4867C109.829 50.8801 110.616 51.0768 111.65 51.0768C112.482 51.0768 113.151 50.9195 113.656 50.6048C114.162 50.2788 114.415 49.8236 114.415 49.2392C114.415 48.8008 114.275 48.4411 113.994 48.1602C113.724 47.8679 113.381 47.6431 112.965 47.4858C112.561 47.3284 111.999 47.1486 111.279 46.9463C110.414 46.699 109.717 46.463 109.189 46.2382C108.66 46.0134 108.211 45.6818 107.84 45.2435C107.469 44.8051 107.284 44.2263 107.284 43.507C107.284 42.8776 107.458 42.3212 107.806 41.8379C108.155 41.3434 108.644 40.9668 109.273 40.7083C109.914 40.4386 110.65 40.3037 111.482 40.3037C112.774 40.3037 113.808 40.5903 114.584 41.1635C115.37 41.7255 115.803 42.5572 115.882 43.6587H114.263C114.151 42.3549 113.235 41.703 111.515 41.703C110.695 41.703 110.049 41.8604 109.576 42.1751C109.104 42.4898 108.868 42.9113 108.868 43.4395C108.868 43.8666 109.003 44.2207 109.273 44.5017C109.543 44.7714 109.874 44.985 110.268 45.1423C110.672 45.2997 111.234 45.4795 111.954 45.6818C112.83 45.9291 113.533 46.1651 114.061 46.3899C114.601 46.6147 115.056 46.9519 115.427 47.4015C115.809 47.8511 116 48.4468 116 49.1886C116 49.8517 115.814 50.4362 115.444 50.9419C115.073 51.4365 114.556 51.8186 113.892 52.0884C113.241 52.3469 112.493 52.4761 111.65 52.4761Z" fill="#F4F5F7"/>
<path d="M105.742 52.2908H104.174L103.179 48.8515H97.3795L96.3848 52.2908H94.8337L98.2899 40.4893H102.286L105.742 52.2908ZM99.3858 41.8886L97.801 47.4016H102.758L101.156 41.8886H99.3858Z" fill="#F4F5F7"/>
<path d="M183.551 21.0935H163.249C163.621 22.65 164.332 23.8512 165.381 24.6971C166.43 25.5091 167.766 25.9152 169.39 25.9152C170.71 25.9152 171.81 25.6952 172.689 25.2554C173.569 24.8155 174.297 24.1557 174.872 23.276H182.992C182.248 26.0505 180.607 28.2837 178.069 29.9755C175.565 31.6673 172.656 32.5132 169.34 32.5132C166.667 32.5132 164.23 31.9211 162.031 30.7368C159.865 29.5187 158.157 27.8608 156.905 25.7629C155.653 23.6651 155.027 21.3304 155.027 18.7588C155.027 16.1534 155.653 13.8018 156.905 11.704C158.157 9.60612 159.865 7.96506 162.031 6.7808C164.23 5.59653 166.667 5.00439 169.34 5.00439C171.979 5.00439 174.364 5.57961 176.496 6.73004C178.661 7.88047 180.37 9.53845 181.622 11.704C182.908 13.8695 183.551 16.4072 183.551 19.3171V21.0935ZM169.39 11.6025C167.834 11.6025 166.531 11.9916 165.482 12.7698C164.467 13.5142 163.757 14.597 163.351 16.0181H175.379C175.007 14.6308 174.297 13.548 173.248 12.7698C172.199 11.9916 170.913 11.6025 169.39 11.6025Z" fill="#F4F5F7"/>
<path d="M119.23 28.8736C117.231 30.8723 114.685 32.2333 111.913 32.7848C109.141 33.3362 106.267 33.0532 103.656 31.9715C101.044 30.8899 98.8125 29.0582 97.2422 26.7081C95.6719 24.3579 94.8337 21.5949 94.8337 18.7684C94.8337 15.942 95.6719 13.179 97.2422 10.8288C98.8125 8.47872 101.044 6.64702 103.656 5.56537C106.267 4.48372 109.14 4.20072 111.913 4.75213C114.685 5.30355 117.231 6.66463 119.23 8.66325L113.167 14.7264C112.367 13.9269 111.349 13.3825 110.24 13.1619C109.131 12.9414 107.982 13.0546 106.937 13.4872C105.893 13.9199 105 14.6526 104.372 15.5926C103.744 16.5327 103.408 17.6379 103.408 18.7684C103.408 19.899 103.744 21.0042 104.372 21.9443C105 22.8843 105.893 23.617 106.937 24.0497C107.982 24.4823 109.131 24.5955 110.24 24.375C111.349 24.1544 112.367 23.61 113.167 22.8105L119.23 28.8736Z" fill="#F4F5F7"/>
<path d="M141.636 14.3121H150.417V23.093H141.636V14.3121Z" fill="#F4F5F7"/>
<path d="M141.636 23.093H150.417V31.8739H141.636V23.093Z" fill="#F4F5F7"/>
<path d="M132.855 14.3121H150.417C150.417 9.46259 146.486 5.53125 141.636 5.53125L132.855 14.3121Z" fill="#F4F5F7"/>
<path d="M132.855 14.3121H137.246C139.67 14.3121 141.636 16.2778 141.636 18.7026V23.093V14.3121H132.855Z" fill="#F4F5F7"/>
<path d="M124.074 5.53125H132.855V14.3121H124.074V5.53125Z" fill="#F4F5F7"/>
<path d="M124.074 23.093H132.855V31.8739H124.074V23.093Z" fill="#F4F5F7"/>
<path d="M124.074 23.093L132.855 14.3121V23.093H124.074Z" fill="#F4F5F7"/>
<path d="M52.0387 7.55709C49.6668 11.668 46.2577 15.0837 42.1525 17.4625C38.0472 19.8413 33.3897 21.0999 28.6459 21.1123C23.902 21.1247 19.238 19.8906 15.1204 17.5333C11.0027 15.176 7.57584 11.7783 5.18241 7.67984L18.2237 0.054316C18.2237 0.054316 22.8646 14.8966 28.6459 14.8966C34.2724 14.8966 38.9577 0 38.9577 0L52.0387 7.55709Z" fill="#1E86FF"/>
<path d="M34.0261 57.4271C31.6541 53.3161 30.4024 48.6541 30.3962 43.9072C30.39 39.1604 31.6295 34.4951 33.9907 30.3779C36.3519 26.2608 39.752 22.8362 43.851 20.4467C47.95 18.0571 52.6041 16.7863 57.348 16.7615L57.4271 31.8755C57.4271 31.8755 42.2609 28.4759 39.3703 33.4858C36.557 38.3616 47.1071 49.87 47.1071 49.87L34.0261 57.4271Z" fill="#1E86FF"/>
<path d="M23.401 57.4271C25.7729 53.3161 27.0246 48.6541 27.0308 43.9072C27.037 39.1604 25.7976 34.4951 23.4364 30.3779C21.0752 26.2608 17.6751 22.8362 13.5761 20.4467C9.47709 18.0571 4.82292 16.7863 0.0790899 16.7615L0 31.8755C0 31.8755 15.1661 28.4759 18.0568 33.4858C20.8701 38.3616 10.3199 49.87 10.3199 49.87L23.401 57.4271Z" fill="#1E86FF"/>
<line x1="75.8132" y1="5.37369e-08" x2="75.8132" y2="57.4271" stroke="#1E86FF" stroke-width="2"/>
</svg>
