<svg width="200" height="63" viewBox="0 0 200 63" fill="none" xmlns="http://www.w3.org/2000/svg">
<path d="M195.23 57.5556C193.59 57.5556 192.314 57.2105 191.402 56.5201C190.49 55.8298 189.99 54.8251 189.904 53.5061H191.698C191.735 54.3197 192.049 54.9422 192.641 55.3737C193.232 55.8052 194.095 56.0209 195.23 56.0209C196.142 56.0209 196.875 55.8483 197.43 55.5031C197.985 55.1456 198.262 54.6464 198.262 54.0054C198.262 53.5246 198.108 53.1301 197.8 52.8219C197.504 52.5014 197.128 52.2549 196.672 52.0823C196.228 51.9097 195.612 51.7125 194.823 51.4906C193.873 51.2194 193.109 50.9605 192.53 50.7139C191.95 50.4674 191.457 50.1037 191.051 49.623C190.644 49.1422 190.44 48.5073 190.44 47.7184C190.44 47.0281 190.631 46.4178 191.014 45.8878C191.396 45.3454 191.932 44.9324 192.622 44.6489C193.325 44.353 194.132 44.2051 195.045 44.2051C196.462 44.2051 197.596 44.5194 198.447 45.1481C199.31 45.7645 199.784 46.6767 199.871 47.8848H198.096C197.972 46.4548 196.968 45.7398 195.082 45.7398C194.182 45.7398 193.473 45.9124 192.955 46.2576C192.437 46.6028 192.178 47.065 192.178 47.6444C192.178 48.1129 192.326 48.5012 192.622 48.8094C192.918 49.1052 193.282 49.3394 193.713 49.512C194.157 49.6846 194.773 49.8818 195.562 50.1037C196.524 50.3749 197.294 50.6338 197.874 50.8804C198.465 51.1269 198.965 51.4967 199.372 51.9898C199.791 52.4829 200 53.1363 200 53.9499C200 54.6772 199.797 55.3182 199.39 55.873C198.983 56.4154 198.416 56.8345 197.689 57.1304C196.974 57.4139 196.154 57.5556 195.23 57.5556Z" fill="#1E2327"/>
<path d="M181.277 51.5827V55.7617H188.562V57.352H179.613V44.4082H188.47V45.9984H181.277V49.9925H187.453V51.5827H181.277Z" fill="#1E2327"/>
<path d="M173.133 57.352H171.469V45.9984H167.161V44.4082H177.423V45.9984H173.133V57.352Z" fill="#1E2327"/>
<path d="M167.297 57.352H165.577L164.486 53.5798H158.125L157.034 57.352H155.333L159.124 44.4082H163.506L167.297 57.352ZM160.326 45.943L158.587 51.9896H164.024L162.267 45.943H160.326Z" fill="#1E2327"/>
<path d="M153.161 57.352H151.497V44.4082H153.161V57.352Z" fill="#1E2327"/>
<path d="M142.804 57.5556C141.583 57.5556 140.462 57.266 139.438 56.6866C138.428 56.1072 137.626 55.3121 137.035 54.3012C136.455 53.278 136.166 52.1378 136.166 50.8804C136.166 49.623 136.455 48.4888 137.035 47.478C137.626 46.4548 138.428 45.6535 139.438 45.0742C140.462 44.4948 141.583 44.2051 142.804 44.2051C143.839 44.2051 144.776 44.4146 145.615 44.8338C146.465 45.2529 147.168 45.8076 147.722 46.498C148.29 47.1883 148.69 47.9464 148.924 48.7724H147.149C146.816 47.9095 146.274 47.2006 145.522 46.6459C144.77 46.0788 143.87 45.7953 142.822 45.7953C141.885 45.7953 141.041 46.011 140.289 46.4425C139.549 46.874 138.964 47.478 138.532 48.2546C138.113 49.0313 137.904 49.9065 137.904 50.8804C137.904 51.8542 138.113 52.7295 138.532 53.5061C138.964 54.2827 139.549 54.8868 140.289 55.3182C141.041 55.7497 141.885 55.9654 142.822 55.9654C143.907 55.9654 144.832 55.6696 145.596 55.0778C146.36 54.4861 146.903 53.7403 147.223 52.8404H148.998C148.752 53.728 148.339 54.5293 147.759 55.2443C147.192 55.9593 146.477 56.5263 145.615 56.9454C144.764 57.3522 143.827 57.5556 142.804 57.5556Z" fill="#1E2327"/>
<path d="M127.708 57.5556C126.475 57.5556 125.347 57.266 124.324 56.6866C123.313 56.1072 122.512 55.3121 121.92 54.3012C121.341 53.278 121.051 52.1378 121.051 50.8804C121.051 49.623 121.341 48.4888 121.92 47.478C122.512 46.4548 123.313 45.6535 124.324 45.0742C125.347 44.4948 126.475 44.2051 127.708 44.2051C128.928 44.2051 130.044 44.4948 131.055 45.0742C132.078 45.6535 132.879 46.4548 133.459 47.478C134.051 48.4888 134.346 49.623 134.346 50.8804C134.346 52.1378 134.051 53.278 133.459 54.3012C132.879 55.3121 132.078 56.1072 131.055 56.6866C130.044 57.266 128.928 57.5556 127.708 57.5556ZM127.708 55.9654C128.633 55.9654 129.465 55.7497 130.204 55.3182C130.956 54.8868 131.542 54.2827 131.961 53.5061C132.393 52.7295 132.608 51.8542 132.608 50.8804C132.608 49.9065 132.393 49.0313 131.961 48.2546C131.542 47.478 130.956 46.874 130.204 46.4425C129.465 46.011 128.633 45.7953 127.708 45.7953C126.771 45.7953 125.927 46.011 125.175 46.4425C124.435 46.874 123.85 47.478 123.418 48.2546C122.999 49.0313 122.789 49.9065 122.789 50.8804C122.789 51.8542 122.999 52.7295 123.418 53.5061C123.85 54.2827 124.435 54.8868 125.175 55.3182C125.927 55.7497 126.771 55.9654 127.708 55.9654Z" fill="#1E2327"/>
<path d="M114.62 57.5556C112.98 57.5556 111.704 57.2105 110.792 56.5201C109.88 55.8298 109.38 54.8251 109.294 53.5061H111.088C111.125 54.3197 111.439 54.9422 112.031 55.3737C112.623 55.8052 113.486 56.0209 114.62 56.0209C115.532 56.0209 116.265 55.8483 116.82 55.5031C117.375 55.1456 117.652 54.6464 117.652 54.0054C117.652 53.5246 117.498 53.1301 117.19 52.8219C116.894 52.5014 116.518 52.2549 116.062 52.0823C115.618 51.9097 115.002 51.7125 114.213 51.4906C113.264 51.2194 112.499 50.9605 111.92 50.7139C111.341 50.4674 110.847 50.1037 110.441 49.623C110.034 49.1422 109.83 48.5073 109.83 47.7184C109.83 47.0281 110.022 46.4178 110.404 45.8878C110.786 45.3454 111.322 44.9324 112.012 44.6489C112.715 44.353 113.522 44.2051 114.435 44.2051C115.852 44.2051 116.987 44.5194 117.837 45.1481C118.7 45.7645 119.175 46.6767 119.261 47.8848H117.486C117.362 46.4548 116.358 45.7398 114.472 45.7398C113.572 45.7398 112.863 45.9124 112.345 46.2576C111.827 46.6028 111.569 47.065 111.569 47.6444C111.569 48.1129 111.717 48.5012 112.012 48.8094C112.308 49.1052 112.672 49.3394 113.103 49.512C113.547 49.6846 114.164 49.8818 114.952 50.1037C115.914 50.3749 116.684 50.6338 117.264 50.8804C117.856 51.1269 118.355 51.4967 118.762 51.9898C119.181 52.4829 119.39 53.1363 119.39 53.9499C119.39 54.6772 119.187 55.3182 118.78 55.873C118.373 56.4154 117.806 56.8345 117.079 57.1304C116.364 57.4139 115.544 57.5556 114.62 57.5556Z" fill="#1E2327"/>
<path d="M103.099 57.5556C101.459 57.5556 100.183 57.2105 99.2712 56.5201C98.359 55.8298 97.8597 54.8251 97.7734 53.5061H99.5671C99.6041 54.3197 99.9184 54.9422 100.51 55.3737C101.102 55.8052 101.965 56.0209 103.099 56.0209C104.011 56.0209 104.745 55.8483 105.299 55.5031C105.854 55.1456 106.131 54.6464 106.131 54.0054C106.131 53.5246 105.977 53.1301 105.669 52.8219C105.373 52.5014 104.997 52.2549 104.541 52.0823C104.097 51.9097 103.481 51.7125 102.692 51.4906C101.743 51.2194 100.979 50.9605 100.399 50.7139C99.8198 50.4674 99.3267 50.1037 98.9199 49.623C98.5131 49.1422 98.3097 48.5073 98.3097 47.7184C98.3097 47.0281 98.5008 46.4178 98.8829 45.8878C99.2651 45.3454 99.8013 44.9324 100.492 44.6489C101.194 44.353 102.002 44.2051 102.914 44.2051C104.332 44.2051 105.466 44.5194 106.316 45.1481C107.179 45.7645 107.654 46.6767 107.74 47.8848H105.965C105.842 46.4548 104.837 45.7398 102.951 45.7398C102.051 45.7398 101.342 45.9124 100.824 46.2576C100.307 46.6028 100.048 47.065 100.048 47.6444C100.048 48.1129 100.196 48.5012 100.492 48.8094C100.787 49.1052 101.151 49.3394 101.583 49.512C102.026 49.6846 102.643 49.8818 103.432 50.1037C104.393 50.3749 105.164 50.6338 105.743 50.8804C106.335 51.1269 106.834 51.4967 107.241 51.9898C107.66 52.4829 107.87 53.1363 107.87 53.9499C107.87 54.6772 107.666 55.3182 107.259 55.873C106.853 56.4154 106.286 56.8345 105.558 57.1304C104.843 57.4139 104.023 57.5556 103.099 57.5556Z" fill="#1E2327"/>
<path d="M96.6186 57.352H94.8989L93.8079 53.5798H87.4469L86.356 57.352H84.6548L88.4455 44.4082H92.8279L96.6186 57.352ZM89.6474 45.943L87.9092 51.9896H93.3456L91.589 45.943H89.6474Z" fill="#1E2327"/>
<path d="M181.959 23.1356H159.692C160.1 24.8427 160.88 26.1602 162.03 27.0879C163.181 27.9786 164.646 28.4239 166.428 28.4239C167.875 28.4239 169.081 28.1827 170.046 27.7003C171.011 27.2178 171.809 26.4942 172.44 25.5293H181.347C180.53 28.5724 178.73 31.0217 175.947 32.8773C173.201 34.7328 170.009 35.6606 166.372 35.6606C163.44 35.6606 160.768 35.0112 158.356 33.7123C155.981 32.3763 154.107 30.5578 152.734 28.2569C151.361 25.9561 150.674 23.3954 150.674 20.5749C150.674 17.7174 151.361 15.1382 152.734 12.8373C154.107 10.5364 155.981 8.73648 158.356 7.43759C160.768 6.1387 163.44 5.48926 166.372 5.48926C169.267 5.48926 171.883 6.12015 174.221 7.38193C176.596 8.64371 178.47 10.4622 179.844 12.8373C181.254 15.2124 181.959 17.9957 181.959 21.1873V23.1356ZM166.428 12.7259C164.721 12.7259 163.292 13.1527 162.141 14.0063C161.028 14.8227 160.249 16.0103 159.803 17.5689H172.996C172.588 16.0474 171.809 14.8598 170.658 14.0063C169.508 13.1527 168.098 12.7259 166.428 12.7259Z" fill="#1E2327"/>
<path d="M111.412 31.669C109.22 33.861 106.427 35.3538 103.387 35.9586C100.346 36.5634 97.1948 36.253 94.3307 35.0667C91.4666 33.8804 89.0186 31.8714 87.2964 29.2938C85.5741 26.7162 84.6548 23.6858 84.6548 20.5857C84.6548 17.4857 85.5741 14.4552 87.2964 11.8777C89.0186 9.30006 91.4666 7.29108 94.3307 6.10474C97.1948 4.91841 100.346 4.60801 103.387 5.21279C106.427 5.81758 109.22 7.31039 111.412 9.50246L104.762 16.1524C103.885 15.2756 102.768 14.6785 101.552 14.4365C100.336 14.1946 99.0753 14.3188 97.9296 14.7933C96.784 15.2679 95.8048 16.0715 95.1159 17.1025C94.427 18.1335 94.0593 19.3457 94.0593 20.5857C94.0593 21.8257 94.427 23.0379 95.1159 24.0689C95.8048 25.1 96.784 25.9036 97.9296 26.3781C99.0753 26.8526 100.336 26.9768 101.552 26.7349C102.768 26.493 103.885 25.8958 104.762 25.019L111.412 31.669Z" fill="#1E2327"/>
<path d="M135.987 15.6982H145.618V25.3289H135.987V15.6982Z" fill="#1E2327"/>
<path d="M135.987 25.3289H145.618V34.9597H135.987V25.3289Z" fill="#1E2327"/>
<path d="M126.356 15.6982H145.618C145.618 10.3792 141.306 6.06738 135.987 6.06738L126.356 15.6982Z" fill="#1E2327"/>
<path d="M126.356 15.6982H131.172C133.831 15.6982 135.987 17.8541 135.987 20.5136V25.3289V15.6982H126.356Z" fill="#1E2327"/>
<path d="M116.725 6.06738H126.356V15.6982H116.725V6.06738Z" fill="#1E2327"/>
<path d="M116.725 25.3289H126.356V34.9597H116.725V25.3289Z" fill="#1E2327"/>
<path d="M116.725 25.3289L126.356 15.6982V25.3289H116.725Z" fill="#1E2327"/>
<path d="M57.0756 8.28852C54.474 12.7973 50.735 16.5436 46.2324 19.1527C41.7298 21.7617 36.6216 23.1421 31.4185 23.1557C26.2155 23.1694 21.1 21.8158 16.5839 19.2303C12.0677 16.6449 8.30911 12.9183 5.68402 8.42315L19.9876 0.0595731C19.9876 0.0595731 25.0776 16.3384 31.4185 16.3384C37.5897 16.3384 42.7284 0 42.7284 0L57.0756 8.28852Z" fill="#1E86FF"/>
<path d="M37.3195 62.9853C34.7179 58.4765 33.3451 53.3632 33.3383 48.1569C33.3315 42.9506 34.6909 37.8338 37.2807 33.3182C39.8704 28.8026 43.5996 25.0465 48.0953 22.4256C52.5911 19.8048 57.6957 18.4111 62.8987 18.3838L62.9855 34.9606C62.9855 34.9606 46.3514 31.232 43.181 36.7268C40.0954 42.0745 51.6666 54.6968 51.6666 54.6968L37.3195 62.9853Z" fill="#1E86FF"/>
<path d="M25.666 62.9853C28.2675 58.4765 29.6404 53.3632 29.6472 48.1569C29.654 42.9506 28.2945 37.8338 25.7048 33.3182C23.1151 28.8026 19.3859 25.0465 14.8901 22.4256C10.3944 19.8048 5.28974 18.4111 0.0867451 18.3838L0 34.9606C0 34.9606 16.6341 31.232 19.8045 36.7268C22.8901 42.0745 11.3188 54.6968 11.3188 54.6968L25.666 62.9853Z" fill="#1E86FF"/>
</svg>
