<svg width="72" height="72" viewBox="0 0 72 72" fill="none" xmlns="http://www.w3.org/2000/svg">
<path d="M65.2443 9.47481C62.2704 14.6289 57.9962 18.9114 52.8492 21.8939C47.7023 24.8763 41.8629 26.4543 35.9152 26.4699C29.9675 26.4854 24.1199 24.9381 18.9574 21.9827C13.7948 19.0272 9.49832 14.7672 6.49752 9.62871L22.8483 0.0680995C22.8483 0.0680995 28.6668 18.6768 35.9152 18.6768C42.9695 18.6768 48.8437 0 48.8437 0L65.2443 9.47481Z" fill="#1E86FF"/>
<path d="M42.6607 72C39.6868 66.8459 38.1175 61.0008 38.1097 55.0493C38.1019 49.0979 39.6559 43.2487 42.6163 38.0868C45.5767 32.9249 49.8396 28.6312 54.9788 25.6353C60.118 22.6393 65.9532 21.0461 71.9008 21.015L72 39.9643C72 39.9643 52.9852 35.7021 49.3611 41.9833C45.8339 48.0964 59.0612 62.5252 59.0612 62.5252L42.6607 72Z" fill="#1E86FF"/>
<path d="M29.3393 72C32.3132 66.8459 33.8825 61.0008 33.8903 55.0493C33.8981 49.0979 32.3441 43.2487 29.3837 38.0868C26.4233 32.9249 22.1604 28.6312 17.0212 25.6353C11.882 22.6393 6.04681 21.0461 0.0991601 21.015L0 39.9643C0 39.9643 19.0148 35.7021 22.6389 41.9833C26.1661 48.0964 12.9388 62.5252 12.9388 62.5252L29.3393 72Z" fill="#1E86FF"/>
</svg>
